<svg xmlns="http://www.w3.org/2000/svg" viewBox="0 0 500 500">
  <g>
    <rect x="0" y="0" width="500" height="500" rx="25" ry="25" fill="#212529" />
    <path d="
      M 378.874 134.909
      L 325.921 83.355
      C 317.357 75.067 305.792 70.411 293.801 70.411
      L 165.091 70.411
      C 140.009 70.411 119.681 90.199 119.681 114.616
      L 119.686 379.844 C 119.686 404.253 140.015 424.049 165.096 424.049
      L 346.732 424.049
      C 371.708 424.049 392.142 404.157 392.142 379.844
      L 392.142 166.142
      C 392.142 154.469 387.389 143.21 378.874 134.909
      Z
      M 358.085 379.844
      C 358.085 385.948 353.001 390.896 346.732 390.896
      L 165.105 390.896
      C 158.835 390.896 153.753 385.948 153.753 379.844
      L 153.739 114.706
      C 153.739 108.603 158.822 103.654 165.091 103.654
      L 278.616 103.654
      L 278.616 158.82
      C 278.616 171.025 288.784 180.923 301.322 180.923
      L 357.446 180.923
      L 357.446 379.844
      L 358.085 379.844
      Z
      M 187.796 263.807
      C 187.796 272.994 195.459 280.384 204.825 280.384
      L 306.998 280.384
      C 316.435 280.384 324.027 272.994 324.027 263.807
      C 324.027 254.62 316.435 247.23 306.998 247.23
      L 204.825 247.23
      C 195.459 247.23 187.796 254.69 187.796 263.807
      Z
      M 306.998 313.537
      L 204.825 313.537
      C 195.459 313.537 187.796 320.997 187.796 330.114
      C 187.796 339.231 195.424 346.691 204.825 346.691
      L 306.998 346.691
      C 316.399 346.691 324.027 339.266 324.027 330.114
      C 324.027 320.962 316.435 313.537 306.998 313.537
      Z
    " fill="rgb(248, 249, 250)" />
  </g>
</svg>
